{"title":"Walesa.Man.of.Hope.2013.DVDRip.x264.HORiZON-ArtSubs","uid":10798703,"size":1859791218,"categoryP":"video","categoryS":"movies","magnet":"?xt=urn:btih:30e3316551e84aa10b70a9140c83b9af3804b3c0&amp;dn=Walesa.Man.of.Hope.2013.DVDRip.x264.HORiZON-ArtSubs&amp;tr=udp%3A%2F%2Ftracker.openbittorrent.com%3A80&amp;tr=udp%3A%2F%2Fopen.demonii.com%3A1337&amp;tr=udp%3A%2F%2Ftracker.coppersurfer.tk%3A6969&amp;tr=udp%3A%2F%2Fexodus.desync.com%3A6969","seeders":16,"leechers":1,"uploader":"lletaif","files":1,"time":1408316693,"description":"Title:\nWalesa: Man of Hope\n\n\nCountry:\nPoland, 2013\n\n\nLanguage:\nPolish\n\n\nNo Subtitle\n\n\nIMDB: &lt;a href=&quot;\nhttp://www.imdb.com/title/tt2113820/?ref_=rvi_tt&quot; rel=&quot;nofollow&quot; target=&quot;_NEW&quot;&gt;\nhttp://www.imdb.com/title/tt2113820/?ref_=rvi_tt&lt;/a&gt;\n\n\nPlot:\nThe depiction of the life of Nobel Peace Prize winner and founder of Poland's Solidarity movement, Lech Walesa, as events in the 1970s lead to a peaceful revolution. The new film from polish master Andrzej Wajda.\n\n\nTrivia:\nOfficial submission of Poland to the Oscars 2014 best foreign language film category\n\n\n\nMedia Info:\n\nGeneral\nUnique ID                                : 127205297804134214850232286017382185996 (0x5FB2D965FEAE0BC9AA02FB31FA22FC0C)\nComplete name                            : Walesa.Man.of.Hope.2013.DVDRip.x264.HORiZON-ArtSubs\nFormat                                   : Matroska\nFormat version                           : Version 2\nFile size                                : 1.73 GiB\nDuration                                 : 1h 59mn\nOverall bit rate                         : 2 079 Kbps\nWriting application                      : HandBrake 0.9.5\nWriting library                          : libmkv 0.6.4.1\n\nVideo\nID                                       : 1\nFormat                                   : AVC\nFormat/Info                              : Advanced Video Codec\nFormat profile                           : &lt;a class=&quot;__cf_email__&quot; href=&quot;/cdn-cgi/l/email-protection&quot; data-cfemail=&quot;6c24050b042c205f425c&quot;&gt;[email&amp;#160;protected]&lt;/a&gt;&lt;script cf-hash='f9e31' type=&quot;text/javascript&quot;&gt;\n/* &lt;![CDATA[ */!function(){try{var t=&quot;currentScript&quot;in document?document.currentScript:function(){for(var t=document.getElementsByTagName(&quot;script&quot;),e=t.length;e--;)if(t[e].getAttribute(&quot;cf-hash&quot;))return t[e]}();if(t&amp;&amp;t.previousSibling){var e,r,n,i,c=t.previousSibling,a=c.getAttribute(&quot;data-cfemail&quot;);if(a){for(e=&quot;&quot;,r=parseInt(a.substr(0,2),16),n=2;a.length-n;n+=2)i=parseInt(a.substr(n,2),16)^r,e+=String.fromCharCode(i);e=document.createTextNode(e),c.parentNode.replaceChild(e,c)}}}catch(u){}}();/* ]]&gt; */&lt;/script&gt;\nFormat settings, CABAC                   : Yes\nFormat settings, ReFrames                : 4 frames\nCodec ID                                 : V_MPEG4/ISO/AVC\nDuration                                 : 1h 59mn\nBit rate                                 : 1 658 Kbps\nWidth                                    : 720 pixels\nHeight                                   : 432 pixels\nDisplay aspect ratio                     : 2.40:1\nOriginal display aspect ratio            : 2.40:1\nFrame rate mode                          : Constant\nFrame rate                               : 25.000 fps\nColor space                              : YUV\nChroma subsampling                       : 4:2:0\nBit depth                                : 8 bits\nScan type                                : Progressive\nBits/(Pixel*Frame)                       : 0.213\nStream size                              : 1.32 GiB (76%)\nWriting library                          : x264 core 112\nEncoding settings                        : cabac=1 / ref=3 / deblock=1:0:0 / analyse=0x3:0x113 / me=hex / subme=7 / psy=1 / psy_rd=1.00:0.00 / mixed_ref=1 / me_range=16 / chroma_me=1 / trellis=1 / 8x8dct=1 / cqm=0 / deadzone=21,11 / fast_pskip=1 / chroma_qp_offset=-2 / threads=6 / sliced_threads=0 / nr=0 / decimate=1 / interlaced=0 / constrained_intra=0 / bframes=3 / b_pyramid=2 / b_adapt=2 / b_bias=0 / direct=1 / weightb=1 / open_gop=0 / weightp=2 / keyint=250 / keyint_min=25 / scenecut=40 / intra_refresh=0 / rc_lookahead=50 / rc=abr / mbtree=1 / bitrate=1658 / ratetol=1.0 / qcomp=0.60 / qpmin=3 / qpmax=51 / qpstep=4 / ip_ratio=1.40 / aq=1:1.00\nLanguage                                 : English\nDefault                                  : Yes\nForced                                   : No\nColor primaries                          : BT.601 NTSC\nTransfer characteristics                 : BT.709\nMatrix coefficients                      : BT.601\n\nAudio\nID                                       : 2\nFormat                                   : AC-3\nFormat/Info                              : Audio Coding 3\nMode extension                           : CM (complete main)\nFormat settings, Endianness              : Big\nCodec ID                                 : A_AC3\nDuration                                 : 1h 59mn\nBit rate mode                            : Constant\nBit rate                                 : 448 Kbps\nChannel(s)                               : 6 channels\nChannel positions                        : Front: L C R, Side: L R, LFE\nSampling rate                            : 48.0 KHz\nBit depth                                : 16 bits\nCompression mode                         : Lossy\nStream size                              : 382 MiB (22%)\nLanguage                                 : Polish\nDefault                                  : Yes\nForced                                   : No\n\nMenu\n00:00:00.000                             : Chapter 1\n00:07:03.520                             : Chapter 2\n00:11:29.040                             : Chapter 3\n00:18:57.200                             : Chapter 4\n00:26:47.360                             : Chapter 5\n00:34:45.360                             : Chapter 6\n00:43:17.000                             : Chapter 7\n00:51:34.760                             : Chapter 8\n01:00:20.040                             : Chapter 9\n01:06:36.400                             : Chapter 10\n01:13:44.000                             : Chapter 11\n01:24:35.880                             : Chapter 12\n01:30:35.720                             : Chapter 13\n01:39:34.920                             : Chapter 14\n01:46:28.800                             : Chapter 15\n01:53:01.240                             : Chapter 16\n\n","torrent":{"xt":"urn:btih:30e3316551e84aa10b70a9140c83b9af3804b3c0","amp;dn":"Walesa.Man.of.Hope.2013.DVDRip.x264.HORiZON-ArtSubs","amp;tr":["udp%3A%2F%2Ftracker.openbittorrent.com%3A80","udp%3A%2F%2Fopen.demonii.com%3A1337","udp%3A%2F%2Ftracker.coppersurfer.tk%3A6969","udp%3A%2F%2Fexodus.desync.com%3A6969"],"infoHash":"30e3316551e84aa10b70a9140c83b9af3804b3c0","infoHashBuffer":{"type":"Buffer","data":[48,227,49,101,81,232,74,161,11,112,169,20,12,131,185,175,56,4,179,192]},"announce":[],"urlList":[]}}